<?xml version="1.0" standalone="no"?>
<!DOCTYPE svg PUBLIC "-//W3C//DTD SVG 20010904//EN" "http://www.w3.org/TR/2001/REC-SVG-20010904/DTD/svg10.dtd">
<!-- Created using Krita: https://krita.org -->
<svg xmlns="http://www.w3.org/2000/svg" 
    xmlns:xlink="http://www.w3.org/1999/xlink"
    xmlns:krita="http://krita.org/namespaces/svg/krita"
    xmlns:sodipodi="http://sodipodi.sourceforge.net/DTD/sodipodi-0.dtd"
    width="841.92pt"
    height="595.2pt"
    viewBox="0 0 841.92 595.2">
<defs/>
<path id="shape0" transform="translate(119.879995842317, 21.7349992341159)" fill="#f9fafe" fill-rule="evenodd" d="M180.225 0C182.937 9.53965 182.673 18.7487 181.08 27.81L0 32.625L0.06 4.125C0.29 5.455 60.345 4.08 180.225 0Z" sodipodi:nodetypes="ccccc"/><path id="shape01" transform="matrix(0.999943598377047 0.0106207374867561 -0.0106207374867561 0.999943598377047 10.2236746772976 9.87297966019738)" fill="#f9fafe" fill-rule="evenodd" stroke-opacity="0" stroke="#000000" stroke-width="0" stroke-linecap="square" stroke-linejoin="bevel" d="M191.163 0C194.04 9.53965 193.76 18.7487 192.07 27.81L0 32.625L0.0636416 4.125C0.307601 5.455 64.0075 4.08 191.163 0Z" sodipodi:nodetypes="ccccc"/><path id="shape02" transform="matrix(0.997334432829742 0.0729659447425874 -0.0729659447425874 0.997334432829742 31.5406440110212 26.6710636681424)" fill="#f9fafe" fill-rule="evenodd" stroke-opacity="0" stroke="#000000" stroke-width="0" stroke-linecap="square" stroke-linejoin="bevel" d="M180.225 0C182.937 9.53965 182.673 18.7487 181.08 27.81L0 32.625L0.06 4.125C0.29 5.455 60.345 4.08 180.225 0Z" sodipodi:nodetypes="ccccc"/><path id="shape03" transform="matrix(0.979053368788219 -0.203603784504219 0.203603784504219 0.979053368788219 8.89518734312397 51.095084926289)" fill="#f9fafe" fill-rule="evenodd" stroke-opacity="0" stroke="#000000" stroke-width="0" stroke-linecap="square" stroke-linejoin="bevel" d="M180.225 0C182.937 9.53965 182.673 18.7487 181.08 27.81L0 32.625L0.06 4.125C0.29 5.455 60.345 4.08 180.225 0Z" sodipodi:nodetypes="ccccc"/><path id="shape04" transform="matrix(0.999897620686076 0.0143090232485712 -0.0143090232485712 0.999897620686076 1.34011116469757 22.680424609853)" fill="#f9fafe" fill-rule="evenodd" stroke-opacity="0" stroke="#000000" stroke-width="0" stroke-linecap="square" stroke-linejoin="bevel" d="M180.225 0C182.937 9.53965 182.673 18.7487 181.08 27.81L0 32.625L0.06 4.125C0.29 5.455 60.345 4.08 180.225 0Z" sodipodi:nodetypes="ccccc"/><path id="shape05" transform="matrix(0.985642999206437 -0.168842761513014 0.168842761513014 0.985642999206437 -7.54842472224651 47.164907363892)" fill="#f9fafe" fill-rule="evenodd" stroke-opacity="0" stroke="#000000" stroke-width="0" stroke-linecap="square" stroke-linejoin="bevel" d="M180.225 0C182.937 9.53965 182.673 18.7487 181.08 27.81L0 32.625L0.06 4.125C0.29 5.455 60.345 4.08 180.225 0Z" sodipodi:nodetypes="ccccc"/><path id="shape06" transform="matrix(0.999938351141775 -0.0111037793506761 0.0111037793506761 0.999938351141775 612.558490180328 18.3973275188242)" fill="#f9fafe" fill-rule="evenodd" stroke-opacity="0" stroke="#000000" stroke-width="0" stroke-linecap="square" stroke-linejoin="bevel" d="M207.644 0C210.747 9.53965 209.033 16.3949 207.21 25.4562L0 30.2712L1.48066 4.125C1.76181 4.04169 70.4895 2.15054 207.644 0Z" sodipodi:nodetypes="ccccc"/><path id="shape07" transform="matrix(0.999987436927978 0.0050125827892559 -0.0050125827892559 0.999987436927978 460.890725790915 29.2374280442661)" fill="#f9fafe" fill-rule="evenodd" stroke-opacity="0" stroke="#000000" stroke-width="0" stroke-linecap="square" stroke-linejoin="bevel" d="M368.238 0C373.701 9.53965 370.683 16.3949 367.474 25.4562L0 31.6347L0.352582 4.68981C0.84753 4.6065 126.786 2.15054 368.238 0Z" sodipodi:nodetypes="ccccc"/><path id="shape08" transform="matrix(0.999938351141775 -0.0111037793506758 0.0111037793506758 0.999938351141775 695.795304985676 83.4750859290698)" fill="#f9fafe" fill-rule="evenodd" stroke-opacity="0" stroke="#000000" stroke-width="0" stroke-linecap="square" stroke-linejoin="bevel" d="M128.351 3.1741C130.265 12.7137 130.264 21.7409 129.14 30.8022L2.93608 29.3345C-0.473039 23.1937 -1.07862 13.7636 1.99442 0.0175437C2.19453 -0.160734 46.8028 1.02874 128.351 3.1741Z" sodipodi:nodetypes="ccccc"/><path id="shape09" transform="matrix(0.999938351141775 -0.0111037793506757 0.0111037793506757 0.999938351141775 643.059124599933 60.7793603455671)" fill="#f9fafe" fill-rule="evenodd" stroke-opacity="0" stroke="#000000" stroke-width="0" stroke-linecap="square" stroke-linejoin="bevel" d="M191.479 3.1741C194.335 12.7137 194.333 21.7409 192.656 30.8022L4.38016 29.3345C-0.7057 23.1937 -1.60913 13.7636 2.97536 0.0175437C3.27389 -0.160734 69.8223 1.02874 191.479 3.1741Z" sodipodi:nodetypes="ccccc"/><path id="shape010" transform="matrix(0.999938351141775 -0.0111037793506755 0.0111037793506755 0.999938351141775 506.719727574892 151.64977993301)" fill="#f9fafe" fill-rule="evenodd" stroke-opacity="0" stroke="#000000" stroke-width="0" stroke-linecap="square" stroke-linejoin="bevel" d="M296.052 3.1741C300.468 12.7137 300.465 21.7409 297.872 30.8022L6.77231 29.3345C-1.09111 23.1937 -2.48793 13.7636 4.6003 0.0175437C5.06187 -0.160734 107.955 1.02874 296.052 3.1741Z" sodipodi:nodetypes="ccccc"/>
</svg>
