<?xml version="1.0" standalone="no"?>
<!DOCTYPE svg PUBLIC "-//W3C//DTD SVG 20010904//EN" "http://www.w3.org/TR/2001/REC-SVG-20010904/DTD/svg10.dtd">
<!-- Created using Krita: https://krita.org -->
<svg xmlns="http://www.w3.org/2000/svg" 
    xmlns:xlink="http://www.w3.org/1999/xlink"
    xmlns:krita="http://krita.org/namespaces/svg/krita"
    xmlns:sodipodi="http://sodipodi.sourceforge.net/DTD/sodipodi-0.dtd"
    width="841.92pt"
    height="595.2pt"
    viewBox="0 0 841.92 595.2">
<defs/>
<path id="shape0" transform="translate(6.86603881959004, 331.91999838026)" fill="#0046aa" fill-rule="evenodd" d="M0.933961 9.18L324.574 0C327.977 2.40081 328.094 21.6164 325.534 25.74L0.693961 35.85C-0.305391 31.8711 -0.225391 22.9811 0.933961 9.18Z" sodipodi:nodetypes="ccccc"/><path id="shape01" transform="translate(205.097814663442, 368.624997517687)" fill="#0046aa" fill-rule="evenodd" stroke-opacity="0" stroke="#000000" stroke-width="0" stroke-linecap="square" stroke-linejoin="bevel" d="M0.313485 3.6L270.109 0C272.639 2.40081 272.366 21.7364 270.463 25.86L1.30504 29.91C0.56199 25.9311 -0.548527 17.4011 0.313485 3.6Z" sodipodi:nodetypes="ccccc"/><path id="shape02" transform="translate(554.111552911696, 320.616000806398)" fill="#0046aa" fill-rule="evenodd" stroke-opacity="0" stroke="#000000" stroke-width="0" stroke-linecap="square" stroke-linejoin="bevel" d="M2.61458 2.22L283.57 0C286.1 2.40081 285.767 21.6764 283.864 25.8L2.52613 28.11C0.114565 21.8558 -1.719 11.2871 2.61458 2.22Z" sodipodi:nodetypes="ccccc"/><path id="shape03" transform="translate(583.721657701691, 374.366997521557)" fill="#0046aa" fill-rule="evenodd" stroke-opacity="0" stroke="#000000" stroke-width="0" stroke-linecap="square" stroke-linejoin="bevel" d="M1.66978 2.16L230.985 0C231.76 2.2332 230.445 21.3726 231.224 25.8L1.83674 28.11C0.606791 21.8558 -1.50871 11.2271 1.66978 2.16Z" sodipodi:nodetypes="ccccc"/><path id="shape04" transform="matrix(1 0.000357380768885282 2.44921270764475e-16 1 -0.0326232579538739 435.178486211219)" fill="#0046aa" fill-rule="evenodd" stroke-opacity="0" stroke="#000000" stroke-width="0" stroke-linecap="square" stroke-linejoin="bevel" d="M0.0899117 4.20635L680.12 0C683.998 6.18071 682.016 22.3137 680.599 25.6895L0.0899117 29.4015C-0.301927 4.60896 0.754475 23.9928 0.0899117 4.20635Z" sodipodi:nodetypes="ccccc"/><path id="shape05" transform="matrix(1 0.000357380768885282 2.44921270764475e-16 1 10.9356872186364 518.062205784708)" fill="#0046aa" fill-rule="evenodd" stroke-opacity="0" stroke="#000000" stroke-width="0" stroke-linecap="square" stroke-linejoin="bevel" d="M0.085901 2.16716L652.062 0C656.735 10.8073 653.674 21.9583 651.56 26.1698L0.085901 27.3623C-0.288459 2.56977 0.72082 21.9536 0.085901 2.16716Z" sodipodi:nodetypes="ccccc"/>
</svg>
