<?xml version="1.0" standalone="no"?>
<!DOCTYPE svg PUBLIC "-//W3C//DTD SVG 20010904//EN" "http://www.w3.org/TR/2001/REC-SVG-20010904/DTD/svg10.dtd">
<!-- Created using Krita: https://krita.org -->
<svg xmlns="http://www.w3.org/2000/svg" 
    xmlns:xlink="http://www.w3.org/1999/xlink"
    xmlns:krita="http://krita.org/namespaces/svg/krita"
    xmlns:sodipodi="http://sodipodi.sourceforge.net/DTD/sodipodi-0.dtd"
    width="841.92pt"
    height="595.2pt"
    viewBox="0 0 841.92 595.2">
<defs/>
<path id="shape0" transform="translate(271.848377250473, 265.958835051129)" fill="none" stroke="#ffffff" stroke-width="6.73679937609766" stroke-linecap="square" stroke-linejoin="miter" stroke-miterlimit="2" d="M0 0L74.2615 98.0672" sodipodi:nodetypes="cc"/><path id="shape2" transform="translate(535.126326320298, 271.087080360312)" fill="none" stroke="#ffffff" stroke-width="6.73679937609766" stroke-linecap="square" stroke-linejoin="miter" stroke-miterlimit="2" d="M0 90.4589L63.2857 0" sodipodi:nodetypes="cc"/><path id="shape3" transform="translate(270.72744931404, 266.547322217756)" fill="none" stroke="#ffffff" stroke-width="6.73679937609766" stroke-linecap="square" stroke-linejoin="miter" stroke-miterlimit="2" d="M0 1.26104L331.748 0" sodipodi:nodetypes="cc"/><path id="shape4" transform="translate(420.96, 96.2223222766815)" fill="none" stroke="#ffffff" stroke-width="6.73679937609766" stroke-linecap="square" stroke-linejoin="miter" stroke-miterlimit="2" d="M0 175.832L0 0" sodipodi:nodetypes="cc"/><path id="shape5" transform="translate(420.96, 101.224463193016)" fill="none" stroke="#ffffff" stroke-width="6.73679937609766" stroke-linecap="square" stroke-linejoin="miter" stroke-miterlimit="2" d="M0 0L91.7478 70.2401" sodipodi:nodetypes="cc"/><path id="shape6" transform="translate(420.96, 171.926992783561)" fill="none" stroke="#ffffff" stroke-width="6.73679937609766" stroke-linecap="square" stroke-linejoin="miter" stroke-miterlimit="2" d="M97.5392 0L0 21.1855" sodipodi:nodetypes="cc"/><path id="shape1" transform="translate(420.96, 89.3399164443288)" fill="#ffffff" fill-rule="evenodd" stroke="#ffffff" stroke-width="9.64105772313008" stroke-linecap="square" stroke-linejoin="bevel" d="M0 0L0 108.796L96.7225 85.6986C96.9618 85.2525 64.7209 56.6863 0 0Z" sodipodi:nodetypes="cccc"/><path id="shape7" transform="translate(274.451761827292, 92.224226979892)" fill="none" stroke="#ffffff" stroke-width="6.73679937609766" stroke-linecap="square" stroke-linejoin="miter" stroke-miterlimit="2" d="M146.508 0L146.508 172.597L0 171.813L70.4905 269.826L259.787 268.313" sodipodi:nodetypes="ccccc"/><path id="shape8" transform="translate(265.580904535693, 266.528881265048)" fill="#ffffff" fill-rule="evenodd" stroke="#ffffff" stroke-width="9.64105772313008" stroke-linecap="square" stroke-linejoin="bevel" d="M155.379 5.52544L338.195 3.27658L273.125 99.5433L79.9146 104.32L0 0C0.0170922 1.13834 51.8101 2.98015 155.379 5.52544Z" sodipodi:nodetypes="cccccc"/>
</svg>
