<?xml version="1.0" encoding="UTF-8" standalone="no"?>
<!-- Created with Inkscape (http://www.inkscape.org/) -->

<svg
   version="1.1"
   id="svg1"
   width="464"
   height="388.26666"
   viewBox="0 0 464 388.26666"
   xml:space="preserve"
   xmlns="http://www.w3.org/2000/svg"
   xmlns:svg="http://www.w3.org/2000/svg"><defs
     id="defs1" /><g
     id="g1"><path
       style="fill:#ffffff;stroke-width:1.26001"
       d="M 113.17939,377.02143 C 111.68244,376.22805 86.637728,345.25498 57.524476,308.19237 28.411243,271.12977 4.2945958,240.0221 3.9319382,239.06423 c -0.5195904,-1.37237 0.4380044,-2.09682 4.5169842,-3.41725 3.8477176,-1.24556 5.0170186,-2.08033 4.5555926,-3.25228 -0.461158,-1.17123 0.03016,-1.52335 1.911051,-1.36943 1.392493,0.11392 2.889105,0.0978 3.325794,-0.036 0.436691,-0.13375 1.270379,-0.35925 1.852631,-0.50112 0.582253,-0.14187 1.415929,-0.33965 1.852618,-0.43952 0.436689,-0.0999 43.084471,-0.13525 94.772821,-0.0787 93.97884,0.10296 93.97884,0.10296 93.25312,-110.60731 C 209.24682,8.6523822 209.24682,8.6523822 214.67373,6.1750917 c 5.42689,-2.4773026 5.42689,-2.4773026 12.58577,3.6141998 3.93739,3.3503305 25.03488,21.3881015 46.88331,40.0839625 21.84843,18.695848 46.47947,39.937326 54.73562,47.203277 10.60873,9.336359 15.77043,13.210829 17.59995,13.210829 2.05244,0 2.72578,0.66792 3.25036,3.22427 0.36391,1.77335 0.66167,4.54841 0.66167,6.16681 0,1.98452 -0.84484,3.48204 -2.59486,4.59958 -1.42715,0.91138 -20.36362,5.79473 -42.08102,10.85193 -21.71741,5.05719 -49.60947,11.56021 -61.98234,14.45116 -22.49616,5.25628 -22.49616,5.25628 -22.49616,44.37134 0,39.11504 0,39.11504 119.62658,39.11504 119.62659,0 119.62659,0 119.62659,3.14654 0,1.7306 0.69134,4.44949 1.5363,6.04199 1.5287,2.88113 1.3244,3.2014 -41.27026,64.69207 -27.07261,39.08269 -43.91186,62.45634 -45.81367,63.59153 -2.71145,1.61844 -11.48152,1.99888 -89.20739,3.86963 -47.41017,1.1411 -104.3031,2.53818 -126.42872,3.10463 -22.12563,0.56643 -40.94299,1.01191 -41.81637,0.98994 -0.87337,-0.022 -2.81275,-0.68909 -4.3097,-1.48247 z"
       id="path1" /></g></svg>
