<?xml version="1.0" standalone="no"?>
<!DOCTYPE svg PUBLIC "-//W3C//DTD SVG 20010904//EN" "http://www.w3.org/TR/2001/REC-SVG-20010904/DTD/svg10.dtd">
<!-- Created using Krita: https://krita.org -->
<svg xmlns="http://www.w3.org/2000/svg" 
    xmlns:xlink="http://www.w3.org/1999/xlink"
    xmlns:krita="http://krita.org/namespaces/svg/krita"
    xmlns:sodipodi="http://sodipodi.sourceforge.net/DTD/sodipodi-0.dtd"
    width="346.32pt"
    height="286.56pt"
    viewBox="0 0 346.32 286.56">
<defs/>
<path id="shape0" transform="translate(157.44, 0.70375618113809)" fill="#dcfaff" fill-rule="evenodd" stroke="#dcfaff" stroke-width="0.3" stroke-linecap="square" stroke-linejoin="bevel" d="M0 0L0 113.283L98.7841 90.3261C99.195 90.0868 66.267 59.9781 0 0Z" sodipodi:nodetypes="cccc"/><path id="shape1" transform="translate(157.44, 1.6337752668057)" fill="none" stroke="#655e57" stroke-width="3.3864" stroke-linecap="square" stroke-linejoin="miter" stroke-miterlimit="2" d="M0 0L0 174.24" sodipodi:nodetypes="cc"/><ellipse id="shape2" transform="translate(169.2, 47.04)" rx="22.56" ry="23.16" cx="22.56" cy="23.16" fill="#005e6d" fill-rule="evenodd" stroke="#005e6d" stroke-width="3.3864" stroke-linecap="square" stroke-linejoin="bevel"/><path id="shape3" transform="translate(187.11662360655, 71.607967111268)" fill="#36c35a" fill-rule="evenodd" stroke="#36c35a" stroke-width="3.3864" stroke-linecap="square" stroke-linejoin="bevel" d="M0.308193 6.3225L4.92203 0L14.2902 3.23059L12.0603 21.0845L5.65626 10.7156L0 10.5565C0.0664731 10.5348 0.169204 9.12343 0.308193 6.3225Z" sodipodi:nodetypes="ccccccc"/><path id="shape4" transform="translate(185.303720905444, 48.02330784254)" fill="#36c35a" fill-rule="evenodd" stroke="#36c35a" stroke-width="3.3864" stroke-linecap="square" stroke-linejoin="bevel" d="M0 16.1119L1.76305 21.0638L6.34063 18.8204L5.64719 16.3689L7.25161 14.3824L10.0344 15.4348L11.4077 17.9066L12.0422 15.3817L10.8865 13.9826L9.554 12.2327L14.6936 14.6475L17.7483 18.8693C18.9388 16.7836 19.3512 15.2362 18.9856 14.2274C18.62 13.2185 17.8329 12.4394 16.6243 11.8901L19.4615 10.956L22.5679 6.56121C20.0739 3.84905 17.1913 1.41476 12.8827 0L8.67474 4.3194L6.30437 2.45936L2.9505 7.57446L5.55201 8.48001L6.98874 6.45273L8.09461 7.9946L2.89611 11.4659C3.49739 11.6345 2.53202 13.1831 0 16.1119Z" sodipodi:nodetypes="cccccccccccczcccccccccccc"/><path id="shape5" transform="translate(169.709054591855, 62.6412566475299)" fill="#36c35a" fill-rule="evenodd" stroke="#36c35a" stroke-width="3.3864" stroke-linecap="square" stroke-linejoin="bevel" d="M0.863648 0L6.43715 3.97241L6.90189 12.9096L3.84259 19.7779L1.48334 14.8397C-0.260119 10.4991 -0.466685 5.55251 0.863648 0Z" sodipodi:nodetypes="cccccc"/><path id="shape6" transform="translate(175.556810955174, 85.7889868252234)" fill="#36c35a" fill-rule="evenodd" stroke="#36c35a" stroke-width="3.3864" stroke-linecap="square" stroke-linejoin="bevel" d="M0.000202204 0.757807C-0.0103133 -0.0500674 0.389311 -0.212005 1.19907 0.271996C2.41372 0.997998 9.38997 5.65796 11.0398 7.0184C11.8532 5.36967 9.88285 8.84085 0.000202204 0.757807Z" sodipodi:nodetypes="czcc"/><path id="shape7" transform="translate(210.580116815618, 76.241746415295)" fill="#36c35a" fill-rule="evenodd" stroke="#36c35a" stroke-width="3.3864" stroke-linecap="square" stroke-linejoin="bevel" d="M0 0L0.0799849 2.84209L1.73407 2.74117L1.37894 0.478565C1.31495 0.524142 0.855305 0.364621 0 0Z" sodipodi:nodetypes="ccccc"/><path id="shape8" transform="translate(-0.151315472911961, 175.957362447531)" fill="#8a8a8a" fill-rule="evenodd" stroke-opacity="0" stroke="#000000" stroke-width="0" stroke-linecap="square" stroke-linejoin="bevel" d="M0 2.54532L347.515 0C309.759 56.4538 288.397 87.623 283.429 93.5077C278.462 99.3924 275.332 103.564 274.038 106.022L272.878 107.54L79.8221 109.334C79.5441 109.215 52.9368 73.6184 0 2.54532Z" sodipodi:nodetypes="cczcccc"/><path id="shape9" transform="translate(27.548327047741, 213.091870125152)" fill="#000000" fill-rule="evenodd" stroke-opacity="0" stroke="#000000" stroke-width="0" stroke-linecap="square" stroke-linejoin="bevel" d="M0 3.00172L20.7026 29.9489L275.883 29.4136L293.744 1.38635C264.134 -0.897857 166.219 -0.3594 0 3.00172Z" sodipodi:nodetypes="ccccc"/><path id="shape10" transform="translate(48.01033322229, 241.817353490571)" fill="#93182d" fill-rule="evenodd" stroke-opacity="0" stroke="#000000" stroke-width="0" stroke-linecap="square" stroke-linejoin="bevel" d="M0 1.62803C5.20404 8.74639 26.642 36.4256 31.7058 43.6702L225.686 41.3696L255.379 0.852864C229.252 -0.501273 144.126 -0.242884 0 1.62803Z" sodipodi:nodetypes="ccccc"/><path id="shape11" transform="translate(0.791393931663038, 169.54903814138)" fill="#885d33" fill-rule="evenodd" stroke-opacity="0" stroke="#000000" stroke-width="0" stroke-linecap="square" stroke-linejoin="bevel" d="M0.253806 1.79086L0 9.31259L344.361 6.5878L344.651 0.110301C344.482 -0.259531 229.683 0.300656 0.253806 1.79086Z" sodipodi:nodetypes="ccccc"/>
</svg>
